<?xml version="1.0" encoding="UTF-8" standalone="no"?>
<svg
   width="101.53906"
   height="30.71875"
   version="1.1"
   id="svg4"
   sodipodi:docname="cbor copy.js.svg"
   viewBox="0 0 101.53906 30.71875"
   inkscape:version="1.4.2 (ebf0e940, 2025-05-08)"
   xmlns:inkscape="http://www.inkscape.org/namespaces/inkscape"
   xmlns:sodipodi="http://sodipodi.sourceforge.net/DTD/sodipodi-0.dtd"
   xmlns="http://www.w3.org/2000/svg"
   xmlns:svg="http://www.w3.org/2000/svg">
  <defs
     id="defs4" />
  <sodipodi:namedview
     id="namedview4"
     pagecolor="#ffffff"
     bordercolor="#000000"
     borderopacity="0.25"
     inkscape:showpageshadow="2"
     inkscape:pageopacity="0.0"
     inkscape:pagecheckerboard="0"
     inkscape:deskcolor="#d1d1d1"
     inkscape:zoom="2.3111111"
     inkscape:cx="30.072116"
     inkscape:cy="1.9471154"
     inkscape:window-width="1200"
     inkscape:window-height="636"
     inkscape:window-x="510"
     inkscape:window-y="180"
     inkscape:window-maximized="0"
     inkscape:current-layer="svg4" />
  <g
     fill="#e1e3fd"
     stroke="#5d5dff"
     stroke-width="1.5"
     id="g4"
     transform="translate(-23.613471,-59.025625)">
    <path
       d="m 46.258002,79.580312 c -0.351562,3.007813 -1.464843,5.332032 -3.339843,6.972657 -1.861979,1.627604 -4.342448,2.441406 -7.441407,2.441406 -3.359375,0 -6.054687,-1.204427 -8.085937,-3.613281 -2.018229,-2.408855 -3.027344,-5.631511 -3.027344,-9.667969 V 72.97875 c 0,-2.643229 0.46875,-4.967448 1.40625,-6.972656 0.950521,-2.005209 2.291667,-3.541667 4.023438,-4.609375 1.731771,-1.080729 3.736979,-1.621094 6.015625,-1.621094 3.020833,0 5.442708,0.846354 7.265625,2.539062 1.822917,1.679688 2.884114,4.010417 3.183593,6.992188 H 42.488471 C 42.16295,67.04125 41.453315,65.400625 40.359565,64.385 c -1.080729,-1.015625 -2.597656,-1.523438 -4.550781,-1.523438 -2.395833,0 -4.277344,0.885417 -5.644532,2.65625 -1.354166,1.770833 -2.03125,4.290365 -2.03125,7.558594 v 2.753906 c 0,3.085938 0.644532,5.540365 1.933594,7.363282 1.289063,1.822917 3.092448,2.734375 5.410156,2.734375 2.083333,0 3.678386,-0.46875 4.785157,-1.40625 1.119791,-0.950521 1.861979,-2.597657 2.226562,-4.941407 z"
       id="path1"
       sodipodi:nodetypes="ccscssccsccccscssssccc" />
    <path
       d="m 51.37519,88.60375 v -28.4375 h 9.296875 c 3.085937,0 5.403646,0.638021 6.953125,1.914062 1.5625,1.276042 2.34375,3.164063 2.34375,5.664063 0,1.328125 -0.377604,2.50651 -1.132813,3.535156 -0.755208,1.015625 -1.783854,1.803386 -3.085937,2.363281 1.536458,0.429688 2.747395,1.250001 3.632812,2.460938 0.898438,1.197917 1.347657,2.630208 1.347657,4.296875 0,2.552083 -0.826823,4.557292 -2.480469,6.015625 -1.653646,1.458333 -3.990886,2.1875 -7.011719,2.1875 z m 3.75,-13.300781 v 10.234375 h 6.191406 c 1.744792,0 3.11849,-0.449219 4.121094,-1.347657 1.015625,-0.911458 1.523437,-2.161458 1.523437,-3.75 0,-3.424479 -1.861979,-5.136718 -5.585937,-5.136718 z m 0,-3.007813 h 5.664062 c 1.640625,0 2.949219,-0.410156 3.925782,-1.230469 0.989583,-0.820312 1.484375,-1.933593 1.484375,-3.339843 0,-1.5625 -0.455729,-2.695313 -1.367188,-3.398438 -0.911458,-0.716146 -2.298177,-1.074219 -4.160156,-1.074219 H 55.12519 Z"
       id="path2"
       sodipodi:nodetypes="ccscscccssscccscssccscscscc" />
    <path
       d="m 98.152534,75.302969 c 0,2.786458 -0.46875,5.221354 -1.40625,7.304687 -0.9375,2.070313 -2.265625,3.652344 -3.984375,4.746094 -1.71875,1.09375 -3.723958,1.640625 -6.015625,1.640625 -2.239583,0 -4.225261,-0.546875 -5.957032,-1.640625 -1.731771,-1.106771 -3.079427,-2.675781 -4.042968,-4.707031 -0.950521,-2.044271 -1.438803,-4.407553 -1.464844,-7.089844 v -2.050781 c 0,-2.734375 0.47526,-5.14974 1.425781,-7.246094 0.950521,-2.096354 2.291667,-3.697917 4.023438,-4.804688 1.744791,-1.119791 3.736979,-1.679687 5.976562,-1.679687 2.278646,0 4.283854,0.553385 6.015625,1.660156 1.744792,1.09375 3.085938,2.688802 4.023438,4.785156 0.9375,2.083333 1.40625,4.511719 1.40625,7.285157 z m -3.730469,-1.835938 c 0,-3.372396 -0.677083,-5.957031 -2.03125,-7.753906 -1.354167,-1.809896 -3.248698,-2.714844 -5.683594,-2.714844 -2.369791,0 -4.238281,0.904948 -5.605469,2.714844 -1.354167,1.796875 -2.050781,4.296875 -2.089843,7.5 v 2.089844 c 0,3.268229 0.683594,5.839843 2.050781,7.714843 1.380208,1.861979 3.274739,2.792969 5.683594,2.792969 2.421875,0 4.296875,-0.878906 5.625,-2.636719 1.328125,-1.770833 2.011718,-4.303385 2.050781,-7.597656 z"
       id="path3"
       sodipodi:nodetypes="scsscccsscsccssscsccscsccs" />
    <path
       d="m 114.20722,77.099844 h -6.67969 V 88.60375 H 103.758 v -28.4375 h 9.41407 c 3.20312,0 5.66406,0.729167 7.38281,2.1875 1.73177,1.458333 2.59765,3.580729 2.59765,6.367187 0,1.770833 -0.48177,3.313802 -1.44531,4.628907 -0.95052,1.315104 -2.27864,2.298177 -3.98437,2.949218 l 6.67968,12.070313 v 0.234375 h -4.02343 z m -6.67969,-3.066407 h 5.76172 c 1.86198,0 3.33985,-0.481771 4.4336,-1.445312 1.10677,-0.963542 1.66015,-2.252605 1.66015,-3.867188 0,-1.757812 -0.52734,-3.105468 -1.58203,-4.042968 -1.04166,-0.9375 -2.55208,-1.412761 -4.53125,-1.425782 h -5.74219 z"
       id="path4"
       sodipodi:nodetypes="cccccscscccccccscscccc" />
  </g>
</svg>
